<mxfile host="app.diagrams.net" modified="2024-03-20T18:13:27.829Z" agent="Mozilla/5.0 (Windows NT 10.0; Win64; x64) AppleWebKit/537.36 (KHTML, like Gecko) Chrome/122.0.0.0 Safari/537.36 Edg/122.0.0.0" etag="yUHYpRbfhDQMttrhyzPP" version="24.0.7" type="device">
  <diagram name="Página-1" id="T6JyOi3F0vz-IVtvQwva">
    <mxGraphModel dx="2016" dy="1910" grid="1" gridSize="10" guides="1" tooltips="1" connect="1" arrows="1" fold="1" page="1" pageScale="1" pageWidth="827" pageHeight="1169" math="0" shadow="0">
      <root>
        <mxCell id="0" />
        <mxCell id="1" parent="0" />
        <mxCell id="y1tTmqZZnMw9loxtYxSx-3" value="Nombre" style="ellipse;whiteSpace=wrap;html=1;" vertex="1" parent="1">
          <mxGeometry x="354" y="-110" width="120" height="80" as="geometry" />
        </mxCell>
        <mxCell id="y1tTmqZZnMw9loxtYxSx-12" style="edgeStyle=orthogonalEdgeStyle;rounded=0;orthogonalLoop=1;jettySize=auto;html=1;entryX=0.5;entryY=0;entryDx=0;entryDy=0;" edge="1" parent="1" source="y1tTmqZZnMw9loxtYxSx-5" target="y1tTmqZZnMw9loxtYxSx-10">
          <mxGeometry relative="1" as="geometry" />
        </mxCell>
        <mxCell id="y1tTmqZZnMw9loxtYxSx-5" value="&lt;div&gt;Usuarios&lt;/div&gt;" style="rounded=0;whiteSpace=wrap;html=1;" vertex="1" parent="1">
          <mxGeometry x="410" y="235" width="120" height="50" as="geometry" />
        </mxCell>
        <mxCell id="y1tTmqZZnMw9loxtYxSx-6" value="Gastos" style="rounded=0;whiteSpace=wrap;html=1;" vertex="1" parent="1">
          <mxGeometry x="100" y="390" width="120" height="60" as="geometry" />
        </mxCell>
        <mxCell id="y1tTmqZZnMw9loxtYxSx-8" value="" style="endArrow=none;html=1;rounded=0;exitX=0.358;exitY=0;exitDx=0;exitDy=0;exitPerimeter=0;" edge="1" parent="1" source="y1tTmqZZnMw9loxtYxSx-5" target="y1tTmqZZnMw9loxtYxSx-3">
          <mxGeometry width="50" height="50" relative="1" as="geometry">
            <mxPoint x="260" y="280" as="sourcePoint" />
            <mxPoint x="310" y="230" as="targetPoint" />
          </mxGeometry>
        </mxCell>
        <mxCell id="y1tTmqZZnMw9loxtYxSx-9" value="Descripción" style="ellipse;whiteSpace=wrap;html=1;" vertex="1" parent="1">
          <mxGeometry x="110" y="160" width="120" height="80" as="geometry" />
        </mxCell>
        <mxCell id="y1tTmqZZnMw9loxtYxSx-46" style="edgeStyle=orthogonalEdgeStyle;rounded=0;orthogonalLoop=1;jettySize=auto;html=1;" edge="1" parent="1" source="y1tTmqZZnMw9loxtYxSx-10">
          <mxGeometry relative="1" as="geometry">
            <mxPoint x="490" y="520" as="targetPoint" />
          </mxGeometry>
        </mxCell>
        <mxCell id="y1tTmqZZnMw9loxtYxSx-10" value="administra" style="rhombus;whiteSpace=wrap;html=1;" vertex="1" parent="1">
          <mxGeometry x="360" y="350" width="80" height="80" as="geometry" />
        </mxCell>
        <mxCell id="y1tTmqZZnMw9loxtYxSx-11" value="" style="endArrow=none;html=1;rounded=0;" edge="1" parent="1" source="y1tTmqZZnMw9loxtYxSx-6" target="y1tTmqZZnMw9loxtYxSx-9">
          <mxGeometry width="50" height="50" relative="1" as="geometry">
            <mxPoint x="90" y="370" as="sourcePoint" />
            <mxPoint x="140" y="320" as="targetPoint" />
          </mxGeometry>
        </mxCell>
        <mxCell id="y1tTmqZZnMw9loxtYxSx-47" style="edgeStyle=orthogonalEdgeStyle;rounded=0;orthogonalLoop=1;jettySize=auto;html=1;entryX=1;entryY=0.5;entryDx=0;entryDy=0;" edge="1" parent="1" source="y1tTmqZZnMw9loxtYxSx-15" target="y1tTmqZZnMw9loxtYxSx-43">
          <mxGeometry relative="1" as="geometry" />
        </mxCell>
        <mxCell id="y1tTmqZZnMw9loxtYxSx-15" value="Categoría_de_Gastos" style="rounded=0;whiteSpace=wrap;html=1;" vertex="1" parent="1">
          <mxGeometry x="440" y="525" width="120" height="60" as="geometry" />
        </mxCell>
        <mxCell id="y1tTmqZZnMw9loxtYxSx-16" value="ID_usuario" style="ellipse;whiteSpace=wrap;html=1;" vertex="1" parent="1">
          <mxGeometry x="250" y="-30" width="120" height="80" as="geometry" />
        </mxCell>
        <mxCell id="y1tTmqZZnMw9loxtYxSx-17" value="Edad" style="ellipse;whiteSpace=wrap;html=1;" vertex="1" parent="1">
          <mxGeometry x="690" y="140" width="120" height="80" as="geometry" />
        </mxCell>
        <mxCell id="y1tTmqZZnMw9loxtYxSx-18" value="Contraseña" style="ellipse;whiteSpace=wrap;html=1;" vertex="1" parent="1">
          <mxGeometry x="690" y="20" width="120" height="80" as="geometry" />
        </mxCell>
        <mxCell id="y1tTmqZZnMw9loxtYxSx-19" value="Correo_Electronico" style="ellipse;whiteSpace=wrap;html=1;" vertex="1" parent="1">
          <mxGeometry x="590" y="-100" width="120" height="80" as="geometry" />
        </mxCell>
        <mxCell id="y1tTmqZZnMw9loxtYxSx-20" value="Apellido" style="ellipse;whiteSpace=wrap;html=1;" vertex="1" parent="1">
          <mxGeometry x="460" y="-20" width="120" height="80" as="geometry" />
        </mxCell>
        <mxCell id="y1tTmqZZnMw9loxtYxSx-21" value="" style="endArrow=none;html=1;rounded=0;entryX=0;entryY=0.5;entryDx=0;entryDy=0;exitX=1;exitY=0.75;exitDx=0;exitDy=0;" edge="1" parent="1" source="y1tTmqZZnMw9loxtYxSx-5" target="y1tTmqZZnMw9loxtYxSx-17">
          <mxGeometry width="50" height="50" relative="1" as="geometry">
            <mxPoint x="420" y="100" as="sourcePoint" />
            <mxPoint x="470" y="50" as="targetPoint" />
          </mxGeometry>
        </mxCell>
        <mxCell id="y1tTmqZZnMw9loxtYxSx-22" value="" style="endArrow=none;html=1;rounded=0;entryX=0.025;entryY=0.325;entryDx=0;entryDy=0;entryPerimeter=0;exitX=1;exitY=0.5;exitDx=0;exitDy=0;" edge="1" parent="1" source="y1tTmqZZnMw9loxtYxSx-5" target="y1tTmqZZnMw9loxtYxSx-18">
          <mxGeometry width="50" height="50" relative="1" as="geometry">
            <mxPoint x="420" y="100" as="sourcePoint" />
            <mxPoint x="470" y="50" as="targetPoint" />
          </mxGeometry>
        </mxCell>
        <mxCell id="y1tTmqZZnMw9loxtYxSx-23" value="" style="endArrow=none;html=1;rounded=0;exitX=0.883;exitY=0.04;exitDx=0;exitDy=0;exitPerimeter=0;" edge="1" parent="1" source="y1tTmqZZnMw9loxtYxSx-5" target="y1tTmqZZnMw9loxtYxSx-19">
          <mxGeometry width="50" height="50" relative="1" as="geometry">
            <mxPoint x="420" y="100" as="sourcePoint" />
            <mxPoint x="470" y="50" as="targetPoint" />
          </mxGeometry>
        </mxCell>
        <mxCell id="y1tTmqZZnMw9loxtYxSx-24" value="" style="endArrow=none;html=1;rounded=0;exitX=0.658;exitY=0;exitDx=0;exitDy=0;exitPerimeter=0;" edge="1" parent="1" source="y1tTmqZZnMw9loxtYxSx-5" target="y1tTmqZZnMw9loxtYxSx-20">
          <mxGeometry width="50" height="50" relative="1" as="geometry">
            <mxPoint x="490" y="230" as="sourcePoint" />
            <mxPoint x="470" y="50" as="targetPoint" />
          </mxGeometry>
        </mxCell>
        <mxCell id="y1tTmqZZnMw9loxtYxSx-25" value="" style="endArrow=none;html=1;rounded=0;entryX=0.633;entryY=0.988;entryDx=0;entryDy=0;entryPerimeter=0;exitX=0.125;exitY=0.04;exitDx=0;exitDy=0;exitPerimeter=0;" edge="1" parent="1" source="y1tTmqZZnMw9loxtYxSx-5" target="y1tTmqZZnMw9loxtYxSx-16">
          <mxGeometry width="50" height="50" relative="1" as="geometry">
            <mxPoint x="420" y="100" as="sourcePoint" />
            <mxPoint x="360" y="100" as="targetPoint" />
          </mxGeometry>
        </mxCell>
        <mxCell id="y1tTmqZZnMw9loxtYxSx-26" value="ID_De_Categoria" style="ellipse;whiteSpace=wrap;html=1;" vertex="1" parent="1">
          <mxGeometry x="620" y="430" width="120" height="80" as="geometry" />
        </mxCell>
        <mxCell id="y1tTmqZZnMw9loxtYxSx-27" value="Fecha" style="ellipse;whiteSpace=wrap;html=1;" vertex="1" parent="1">
          <mxGeometry x="-130" y="200" width="120" height="80" as="geometry" />
        </mxCell>
        <mxCell id="y1tTmqZZnMw9loxtYxSx-28" value="&lt;font&gt;Nombre_de_Categoria&lt;/font&gt;" style="ellipse;whiteSpace=wrap;html=1;" vertex="1" parent="1">
          <mxGeometry x="630" y="620" width="120" height="80" as="geometry" />
        </mxCell>
        <mxCell id="y1tTmqZZnMw9loxtYxSx-30" value="" style="endArrow=none;html=1;rounded=0;exitX=1;exitY=1;exitDx=0;exitDy=0;" edge="1" parent="1" source="y1tTmqZZnMw9loxtYxSx-15" target="y1tTmqZZnMw9loxtYxSx-28">
          <mxGeometry width="50" height="50" relative="1" as="geometry">
            <mxPoint x="490" y="490" as="sourcePoint" />
            <mxPoint x="540" y="440" as="targetPoint" />
          </mxGeometry>
        </mxCell>
        <mxCell id="y1tTmqZZnMw9loxtYxSx-31" value="" style="endArrow=none;html=1;rounded=0;exitX=1;exitY=0;exitDx=0;exitDy=0;" edge="1" parent="1" source="y1tTmqZZnMw9loxtYxSx-15" target="y1tTmqZZnMw9loxtYxSx-26">
          <mxGeometry width="50" height="50" relative="1" as="geometry">
            <mxPoint x="490" y="490" as="sourcePoint" />
            <mxPoint x="540" y="440" as="targetPoint" />
          </mxGeometry>
        </mxCell>
        <mxCell id="y1tTmqZZnMw9loxtYxSx-32" value="Monto" style="ellipse;whiteSpace=wrap;html=1;" vertex="1" parent="1">
          <mxGeometry x="-230" y="315" width="120" height="80" as="geometry" />
        </mxCell>
        <mxCell id="y1tTmqZZnMw9loxtYxSx-33" value="ID_Categoria" style="ellipse;whiteSpace=wrap;html=1;" vertex="1" parent="1">
          <mxGeometry x="-60" y="600" width="120" height="80" as="geometry" />
        </mxCell>
        <mxCell id="y1tTmqZZnMw9loxtYxSx-34" value="ID_Usuario" style="ellipse;whiteSpace=wrap;html=1;" vertex="1" parent="1">
          <mxGeometry x="-230" y="580" width="120" height="80" as="geometry" />
        </mxCell>
        <mxCell id="y1tTmqZZnMw9loxtYxSx-35" value="ID_GASTO" style="ellipse;whiteSpace=wrap;html=1;" vertex="1" parent="1">
          <mxGeometry x="-260" y="450" width="120" height="80" as="geometry" />
        </mxCell>
        <mxCell id="y1tTmqZZnMw9loxtYxSx-36" value="" style="endArrow=none;html=1;rounded=0;exitX=0.658;exitY=0;exitDx=0;exitDy=0;exitPerimeter=0;entryX=0.058;entryY=1.017;entryDx=0;entryDy=0;entryPerimeter=0;" edge="1" parent="1" source="y1tTmqZZnMw9loxtYxSx-34" target="y1tTmqZZnMw9loxtYxSx-6">
          <mxGeometry width="50" height="50" relative="1" as="geometry">
            <mxPoint x="130" y="430" as="sourcePoint" />
            <mxPoint x="180" y="380" as="targetPoint" />
          </mxGeometry>
        </mxCell>
        <mxCell id="y1tTmqZZnMw9loxtYxSx-37" value="" style="endArrow=none;html=1;rounded=0;exitX=1.017;exitY=0.338;exitDx=0;exitDy=0;exitPerimeter=0;entryX=0;entryY=0.75;entryDx=0;entryDy=0;" edge="1" parent="1" source="y1tTmqZZnMw9loxtYxSx-35" target="y1tTmqZZnMw9loxtYxSx-6">
          <mxGeometry width="50" height="50" relative="1" as="geometry">
            <mxPoint x="130" y="430" as="sourcePoint" />
            <mxPoint x="180" y="380" as="targetPoint" />
          </mxGeometry>
        </mxCell>
        <mxCell id="y1tTmqZZnMw9loxtYxSx-38" value="" style="endArrow=none;html=1;rounded=0;exitX=0.692;exitY=-0.037;exitDx=0;exitDy=0;exitPerimeter=0;entryX=0.25;entryY=1;entryDx=0;entryDy=0;" edge="1" parent="1" source="y1tTmqZZnMw9loxtYxSx-33" target="y1tTmqZZnMw9loxtYxSx-6">
          <mxGeometry width="50" height="50" relative="1" as="geometry">
            <mxPoint x="130" y="430" as="sourcePoint" />
            <mxPoint x="180" y="380" as="targetPoint" />
          </mxGeometry>
        </mxCell>
        <mxCell id="y1tTmqZZnMw9loxtYxSx-39" value="" style="endArrow=none;html=1;rounded=0;entryX=1;entryY=1;entryDx=0;entryDy=0;exitX=0;exitY=0.5;exitDx=0;exitDy=0;" edge="1" parent="1" source="y1tTmqZZnMw9loxtYxSx-6" target="y1tTmqZZnMw9loxtYxSx-32">
          <mxGeometry width="50" height="50" relative="1" as="geometry">
            <mxPoint x="130" y="430" as="sourcePoint" />
            <mxPoint x="180" y="380" as="targetPoint" />
          </mxGeometry>
        </mxCell>
        <mxCell id="y1tTmqZZnMw9loxtYxSx-40" value="" style="endArrow=none;html=1;rounded=0;exitX=0.058;exitY=0;exitDx=0;exitDy=0;exitPerimeter=0;" edge="1" parent="1" source="y1tTmqZZnMw9loxtYxSx-6" target="y1tTmqZZnMw9loxtYxSx-27">
          <mxGeometry width="50" height="50" relative="1" as="geometry">
            <mxPoint x="130" y="430" as="sourcePoint" />
            <mxPoint x="180" y="380" as="targetPoint" />
          </mxGeometry>
        </mxCell>
        <mxCell id="y1tTmqZZnMw9loxtYxSx-48" style="edgeStyle=orthogonalEdgeStyle;rounded=0;orthogonalLoop=1;jettySize=auto;html=1;entryX=0.5;entryY=1;entryDx=0;entryDy=0;" edge="1" parent="1" source="y1tTmqZZnMw9loxtYxSx-43" target="y1tTmqZZnMw9loxtYxSx-6">
          <mxGeometry relative="1" as="geometry" />
        </mxCell>
        <mxCell id="y1tTmqZZnMw9loxtYxSx-43" value="Definir" style="rhombus;whiteSpace=wrap;html=1;" vertex="1" parent="1">
          <mxGeometry x="200" y="480" width="130" height="110" as="geometry" />
        </mxCell>
        <mxCell id="y1tTmqZZnMw9loxtYxSx-49" value="Descripción" style="ellipse;whiteSpace=wrap;html=1;" vertex="1" parent="1">
          <mxGeometry x="290" y="640" width="120" height="80" as="geometry" />
        </mxCell>
        <mxCell id="y1tTmqZZnMw9loxtYxSx-50" value="" style="endArrow=none;html=1;rounded=0;entryX=0.331;entryY=1.036;entryDx=0;entryDy=0;entryPerimeter=0;" edge="1" parent="1" source="y1tTmqZZnMw9loxtYxSx-49" target="y1tTmqZZnMw9loxtYxSx-15">
          <mxGeometry width="50" height="50" relative="1" as="geometry">
            <mxPoint x="290" y="380" as="sourcePoint" />
            <mxPoint x="340" y="330" as="targetPoint" />
          </mxGeometry>
        </mxCell>
      </root>
    </mxGraphModel>
  </diagram>
</mxfile>
